<svg fill="none" height="180" viewBox="0 0 400 180" width="400" xmlns="http://www.w3.org/2000/svg"><path d="m84.5075 96.4721v20.7399h-15.1665v-14.596c0-6.5091-2.2017-9.289-9.0278-9.289-4.4844 0-9.225 1.9587-12.1951 4.8033v19.0817h-15.1665v-36.8047h15.1665v5.3358c4.5511-3.1602 10.3632-5.688 18.326-5.688 8.5326 0 18.0634 2.7029 18.0634 16.417zm84.4345-27.619h-15.168v11.5542h-8.141v12.2977h8.141v24.507h30.333v-12.335h-15.165v-12.172h15.165v-12.2977h-15.165zm-27.419 32.4489h-35.432c1.244 3.985 5.418 4.981 9.527 4.981 4.047 0 6.286-.208 8.432-1.325l16.503.001c-2.402 8.834-10.388 13.155-24.935 13.155-14.633 0-24.7849-5.48-24.7849-19.3043 0-13.8239 10.1519-19.3047 25.4079-19.3047 15.382 0 25.282 5.4808 25.282 21.797zm-15.874-8.3501c-1.748-2.4865-5.505-3.641-9.49-3.641-3.987 0-7.703 1.1545-9.315 3.641zm100.904 7.1041c-2.851 2.729-7.399 4.609-11.704 4.609-6.55 0-8.794-2.668-8.794-8.9148v-15.3429h-15.166v21.2867c0 13.159 9.89 15.706 18.077 15.706 7.642 0 13.22-2.425 17.587-5.458l-.001 5.27h15.167l.002-36.8047h-15.168zm86.412-20.2321c-8.948 0-14.274 2.8197-17.952 7.0899-2.881-5.3939-9.2-7.0899-13.797-7.0899-8.948 0-13.301 3.6769-16.549 6.7417v-6.1583h-15.166v36.8017l15.166.003v-19.8579c3.126-3.0648 6.251-4.6589 9.991-4.6589 5.394 0 7.048 2.697 7.048 9.0098v15.507h15.166l-.022-20.246c3.126-3.0648 5.818-4.2708 9.557-4.2708 5.393 0 7.048 2.697 7.048 9.0098v15.507h15.168v-22.1263c0-12.6877-9.221-15.2618-15.658-15.2618zm-302.9611.5834.068 36.8047h15.0998l-.0679-36.8047zm15.1678-19.1381h-15.1678v15.1671h15.1678z" fill="#232d4b"/><path d="m358.956 71.7121v15.1665h15.167v15.1674h15.166v-30.3339zm0 30.3339h-15.166v15.166h15.166z" fill="#00aa9b"/></svg>